<svg id="Layer_1" data-name="Layer 1" xmlns="http://www.w3.org/2000/svg" viewBox="0 0 1486.01 337.91"><defs><style>.cls-1{fill:#643de3;}.cls-2{fill:#cdff61;}.cls-3{fill:#fff;}.cls-4{fill:#ffae0d;}</style></defs><path class="cls-1" d="M1274.89,464.33a13.08,13.08,0,0,1-9.79-4.18,13.78,13.78,0,0,1-4-9.93,13.63,13.63,0,0,1,4-10.07,13.32,13.32,0,0,1,9.79-4,13.54,13.54,0,0,1,10.22,4,13.92,13.92,0,0,1,3.89,10.07,14.07,14.07,0,0,1-3.89,9.93A13.29,13.29,0,0,1,1274.89,464.33Z" transform="translate(-268.22 -371)"/><path class="cls-1" d="M663.41,511.74V474.31H770.8v37.43Zm31.67,102.49V416.45h44V614.23Z" transform="translate(-268.22 -371)"/><path class="cls-1" d="M790.09,614.23V474.31h44V614.23Zm44-76.87L815.71,523q5.46-24.47,18.42-38t36-13.54a47.78,47.78,0,0,1,17.71,3,35.8,35.8,0,0,1,13.38,9.35L875,516.92a19.14,19.14,0,0,0-7.19-4.89A26.24,26.24,0,0,0,858,510.3q-10.95,0-17.42,6.77T834.13,537.36Z" transform="translate(-268.22 -371)"/><path class="cls-1" d="M934.9,455q10.35,0,17-7a25.65,25.65,0,0,0,0-34.4q-6.63-6.92-17-6.91a22.93,22.93,0,0,0-17.13,6.91,25.23,25.23,0,0,0,0,34.4A22.68,22.68,0,0,0,934.9,455Zm-11-35.23a14.69,14.69,0,0,1,11-4.42,14.39,14.39,0,0,1,10.87,4.42,16.4,16.4,0,0,1,0,22,14.25,14.25,0,0,1-10.87,4.51,14.54,14.54,0,0,1-11-4.51,16.18,16.18,0,0,1,0-22Z" transform="translate(-268.22 -371)"/><rect class="cls-1" x="644.51" y="103.31" width="44.05" height="139.92"/><path class="cls-1" d="M987.86,673.25V474.31h44.05v36l-7.19,34,6.62,34v95Zm80.62-56.14a60.77,60.77,0,0,1-25.91-5.47,51,51,0,0,1-19.29-15.11,41.31,41.31,0,0,1-8.64-22v-59a43.64,43.64,0,0,1,8.64-22.45,51.83,51.83,0,0,1,19.29-15.84,58.37,58.37,0,0,1,25.91-5.76q19.86,0,35.26,9.51a67,67,0,0,1,24.19,25.91q8.77,16.41,8.78,37.42t-8.78,37.43a67,67,0,0,1-24.19,25.91Q1088.34,617.11,1068.48,617.11Zm-8.07-39.73a31.09,31.09,0,0,0,16.56-4.32,30.56,30.56,0,0,0,11.08-11.8,35.22,35.22,0,0,0,4-17,35.84,35.84,0,0,0-4-17.27A29.5,29.5,0,0,0,1077,515.34a33.81,33.81,0,0,0-32.53,0A29.46,29.46,0,0,0,1033.35,527a35.84,35.84,0,0,0-4,17.27,36.33,36.33,0,0,0,3.89,17,29.16,29.16,0,0,0,11.08,11.8A30.72,30.72,0,0,0,1060.41,577.38Z" transform="translate(-268.22 -371)"/><path class="cls-1" d="M1150,497.06V478.92h99.61v18.14Zm34,117.17V455.89a50,50,0,0,1,6.19-25.05,44.23,44.23,0,0,1,17.27-17.13,50.86,50.86,0,0,1,25.19-6.19,45.26,45.26,0,0,1,19.29,3.89,53.43,53.43,0,0,1,15.26,10.79l-13.24,13.25a31.2,31.2,0,0,0-9.65-6.77,29.36,29.36,0,0,0-11.66-2.16q-13.53,0-20.87,7.92t-7.34,22V614.23Z" transform="translate(-268.22 -371)"/><rect class="cls-1" x="996.59" y="107.92" width="20.44" height="135.31"/><path class="cls-1" d="M1320.38,614.23V478.92h20.15V614.23Zm98.46,0V534.77q0-17.85-10.51-28.93t-27.78-11.08a40.48,40.48,0,0,0-20.73,5.18,38.33,38.33,0,0,0-14.11,14.1,40,40,0,0,0-5.18,20.44l-9.21-5.18A52,52,0,0,1,1358,483Q1370.17,476,1386,476a51.47,51.47,0,0,1,27.64,7.49,52.2,52.2,0,0,1,18.85,20.15,57.78,57.78,0,0,1,6.77,27.64v82.91Z" transform="translate(-268.22 -371)"/><path class="cls-1" d="M1528.81,617.11a63,63,0,0,1-33.68-9.21,66.65,66.65,0,0,1-23.75-25.19q-8.79-16-8.78-35.85,0-20.15,8.78-36.13a67.78,67.78,0,0,1,23.75-25.33,65.67,65.67,0,0,1,61.32-3.31A55.65,55.65,0,0,1,1577,499.22a51.17,51.17,0,0,1,9.64,26v42.32a54.55,54.55,0,0,1-9.64,25.77,55.85,55.85,0,0,1-20.3,17.42A60.47,60.47,0,0,1,1528.81,617.11Zm3.46-19.29q14.1,0,24.76-6.48a44.84,44.84,0,0,0,16.69-18.13,57,57,0,0,0,6-26.63q0-15.26-6.19-26.78a47.36,47.36,0,0,0-16.84-18.14Q1546.09,495,1532,495a47.44,47.44,0,0,0-25,6.62A46.33,46.33,0,0,0,1489.8,520a60.38,60.38,0,0,0,0,53.26,44.94,44.94,0,0,0,17.28,18.13A48.94,48.94,0,0,0,1532.27,597.82Zm66.5,16.41h-20.15V578l4-33.4-4-32.53V410.4h20.15Z" transform="translate(-268.22 -371)"/><path class="cls-1" d="M1679.09,614.81l-59.3-135.89H1642l47.79,113.43h-8.35l50.39-113.43h22.45l-63.62,135.89Zm-36.85,56.43,37.14-76.87,11.23,20.44-26.2,56.43Z" transform="translate(-268.22 -371)"/><path class="cls-2" d="M750.26,447.05" transform="translate(-268.22 -371)"/><circle class="cls-1" cx="437.18" cy="539.95" r="168.95" transform="translate(-521.98 96.28) rotate(-45)"/><path class="cls-3" d="M430.92,464l-55.75,55.76v40.84c-.07,5.33.06,42,30.32,68.66,31.75,28,70.36,21.86,75.21,21q19.1-24.69,38.17-49.4h0L481,602.09c-8-.79-34.77-4.35-44.6-23.49-2.11-4.12-2.78-7.67-4.13-14.77V519.75h67.42V464Z" transform="translate(-268.22 -371)"/><path class="cls-4" d="M365.31,445q1.71,29.68,3.43,59.37l25.92-25Z" transform="translate(-268.22 -371)"/><path class="cls-4" d="M425.79,449.25,365.31,445l38.57,25.43Z" transform="translate(-268.22 -371)"/></svg>